<svg fill="currentColor" viewBox="0 0 24 24" width="24" height="24">
  <path d="M12 0C5.373 0 0 5.373 0 12c0 5.303 3.438 9.8 8.205 11.387.6.113.82-.258.82-.577 0-.285-.01-1.04-.016-2.04-3.338.725-4.042-1.607-4.042-1.607-.547-1.392-1.335-1.763-1.335-1.763-1.091-.745.082-.729.082-.729 1.205.084 1.84 1.237 1.84 1.237 1.07 1.835 2.807 1.305 3.492.997.11-.775.42-1.305.762-1.605-2.665-.3-5.466-1.333-5.466-5.932 0-1.31.468-2.382 1.235-3.22-.124-.303-.535-1.523.117-3.173 0 0 1.007-.322 3.3 1.23.957-.266 1.983-.399 3.003-.404 1.019.005 2.046.138 3.005.404 2.29-1.552 3.295-1.23 3.295-1.23.653 1.65.243 2.87.12 3.173.77.838 1.235 1.91 1.235 3.22 0 4.61-2.805 5.625-5.475 5.922.43.372.823 1.102.823 2.222 0 1.604-.015 2.896-.015 3.286 0 .32.217.698.825.58C20.565 21.795 24 17.3 24 12c0-6.627-5.373-12-12-12z" />
</svg>
